# xmcd CD database file
#
# Track frame offsets:
#	150
#	12674
#	25487
#	38909
#	51196
#	63252
#	75926
#	89149
#	102036
#	115223
#	128443
#	143931
#	158276
#	172938
#	184991
#	199282
#
# Disc length: 2837 seconds
#
# Revision: 1
# Processed by: cddbd v1.5.1PL0 Copyright (c) Steve Scherf et al.
# Submitted via: CDex 1.51
#
DISCID=cf0b1310
DTITLE=Duke Ellington - Portrait
DYEAR=2002
DGENRE=Jazz
TTITLE0=Caravan
TTITLE1=Black And Tan Fantasy
TTITLE2=The Minor Goes A Muggin'
TTITLE3=Mood Indigo
TTITLE4=Sophisticated Lady
TTITLE5=Carnegie Blues
TTITLE6=Blue Cellophane
TTITLE7=Main Stem
TTITLE8=Chelsea Bridge
TTITLE9=Jump For Joy
TTITLE10=What Am I Here For?
TTITLE11=Perdido
TTITLE12=I'm Beginning To See The Light
TTITLE13=The "C" Jam Blues
TTITLE14=Things Ain't What They Used To Be
TTITLE15=Prelude To A Kiss
EXTD=YEAR: 2002
EXTT0=
EXTT1=
EXTT2=
EXTT3=
EXTT4=
EXTT5=
EXTT6=
EXTT7=
EXTT8=
EXTT9=
EXTT10=
EXTT11=
EXTT12=
EXTT13=
EXTT14=
EXTT15=
PLAYORDER=
